HIERARCHY
ROOT Hips
{
  OFFSET 0.0 0.0 0.0
  CHANNELS 6 Xposition Yposition Zposition Zrotation Yrotation Xrotation
  JOINT LHipJoint
  {
    OFFSET 0.0 0.0 0.0
    CHANNELS 3 Zrotation Yrotation Xrotation
    JOINT LeftUpLeg
    {
      OFFSET 1.363059998 -1.794630051 0.839290023
      CHANNELS 3 Zrotation Yrotation Xrotation
      JOINT LeftLeg
      {
        OFFSET 2.448110104 -6.726130009 0.0
        CHANNELS 3 Zrotation Yrotation Xrotation
        JOINT LeftFoot
        {
          OFFSET 2.562200069 -7.039589882 0.0
          CHANNELS 3 Zrotation Yrotation Xrotation
          JOINT LeftToeBase
          {
            OFFSET 0.157639995 -0.433109999 2.322550058
            CHANNELS 3 Zrotation Yrotation Xrotation
            End Site
            {
              OFFSET 0.0 -0.0 1.189659953
            }
          }
        }
      }
    }
  }
  JOINT RHipJoint
  {
    OFFSET 0.0 0.0 0.0
    CHANNELS 3 Zrotation Yrotation Xrotation
    JOINT RightUpLeg
    {
      OFFSET -1.305520058 -1.794630051 0.839290023
      CHANNELS 3 Zrotation Yrotation Xrotation
      JOINT RightLeg
      {
        OFFSET -2.54253006 -6.985549927 0.0
        CHANNELS 3 Zrotation Yrotation Xrotation
        JOINT RightFoot
        {
          OFFSET -2.568259954 -7.056230068 0.0
          CHANNELS 3 Zrotation Yrotation Xrotation
          JOINT RightToeBase
          {
            OFFSET -0.164729998 -0.452589989 2.363149881
            CHANNELS 3 Zrotation Yrotation Xrotation
            End Site
            {
              OFFSET -0.0 -0.0 1.21081996
            }
          }
        }
      }
    }
  }
  JOINT LowerBack
  {
    OFFSET 0.0 0.0 0.0
    CHANNELS 3 Zrotation Yrotation Xrotation
    JOINT Spine
    {
      OFFSET 0.028270001 2.035589933 -0.193379998
      CHANNELS 3 Zrotation Yrotation Xrotation
      JOINT Spine1
      {
        OFFSET 0.05672 2.04885006 -0.042750001
        CHANNELS 3 Zrotation Yrotation Xrotation
        JOINT Neck
        {
          OFFSET 0.0 0.0 0.0
          CHANNELS 3 Zrotation Yrotation Xrotation
          JOINT Neck1
          {
            OFFSET -0.054170001 1.74624002 0.172020003
            CHANNELS 3 Zrotation Yrotation Xrotation
            JOINT Head
            {
              OFFSET 0.10407 1.761360049 -0.123970002
              CHANNELS 3 Zrotation Yrotation Xrotation
              End Site
              {
                OFFSET 0.0372 1.770439982 -0.062410001
              }
            }
          }
        }
        JOINT LeftShoulder
        {
          OFFSET 0.0 0.0 0.0
          CHANNELS 3 Zrotation Yrotation Xrotation
          JOINT LeftArm
          {
            OFFSET 3.362410069 1.200889945 -0.311210006
            CHANNELS 3 Zrotation Yrotation Xrotation
            JOINT LeftForeArm
            {
              OFFSET 4.982999802 -0.0 -0.0
              CHANNELS 3 Zrotation Yrotation Xrotation
              JOINT LeftHand
              {
                OFFSET 3.483560085 -0.0 -0.0
                CHANNELS 3 Zrotation Yrotation Xrotation
                JOINT LeftFingerBase
                {
                  OFFSET 0.0 0.0 0.0
                  CHANNELS 3 Zrotation Yrotation Xrotation
                  JOINT LeftHandIndex1
                  {
                    OFFSET 0.715260029 -0.0 -0.0
                    CHANNELS 3 Zrotation Yrotation Xrotation
                    End Site
                    {
                      OFFSET 0.576659977 -0.0 -0.0
                    }
                  }
                }
                JOINT LThumb
                {
                  OFFSET 0.0 0.0 0.0
                  CHANNELS 3 Zrotation Yrotation Xrotation
                  End Site
                  {
                    OFFSET 0.585470021 -0.0 0.585470021
                  }
                }
              }
            }
          }
        }
        JOINT RightShoulder
        {
          OFFSET 0.0 0.0 0.0
          CHANNELS 3 Zrotation Yrotation Xrotation
          JOINT RightArm
          {
            OFFSET -3.136600018 1.374050021 -0.404650003
            CHANNELS 3 Zrotation Yrotation Xrotation
            JOINT RightForeArm
            {
              OFFSET -5.241899967 -0.0 -0.0
              CHANNELS 3 Zrotation Yrotation Xrotation
              JOINT RightHand
              {
                OFFSET -3.444169998 -0.0 -0.0
                CHANNELS 3 Zrotation Yrotation Xrotation
                JOINT RightFingerBase
                {
                  OFFSET 0.0 0.0 0.0
                  CHANNELS 3 Zrotation Yrotation Xrotation
                  JOINT RightHandIndex1
                  {
                    OFFSET -0.622529984 -0.0 -0.0
                    CHANNELS 3 Zrotation Yrotation Xrotation
                    End Site
                    {
                      OFFSET -0.501900017 -0.0 -0.0
                    }
                  }
                }
                JOINT RThumb
                {
                  OFFSET 0.0 0.0 0.0
                  CHANNELS 3 Zrotation Yrotation Xrotation
                  End Site
                  {
                    OFFSET -0.509559989 -0.0 0.509559989
                  }
                }
              }
            }
          }
        }
      }
    }
  }
}
MOTION
Frames: 4
Frame Time: 0.0083333
12.699706078 26.578399658 41.648571014 -175.73600769 -4.517001629 -157.165985107 0.0 -0.0 0.0 -12.145798683 -2.665400028 -14.397898674 2.315701008 9.494702339 27.355604172 3.656300545 -12.383200645 -34.644012451 0.055199988 -1.515999913 -4.16989994 0.0 -0.0 0.0 25.373100281 9.037500381 -13.145702362 -2.39109993 -9.637101173 27.809505463 -4.534100533 1.522299647 -40.124004364 -0.084299989 -1.872999668 5.154899597 -0.213199839 4.190200806 21.973400116 1.195000172 5.607899666 -1.819399714 -0.415799975 2.576599598 -14.615196228 2.304400206 -7.510601521 8.604901314 6.49849987 -9.240499496 -15.698699951 2.388700247 -5.284799099 -5.970200539 0.0 -0.0 0.0 84.871292114 -22.964393616 -136.137405396 123.182014465 -55.400604248 -88.292709351 0.0 -0.0 29.046001434 16.340297699 1.325000048 0.388399899 -7.125 0.0 0.0 -8.159901619 31.297403336 2.758200407 0.0 -0.0 0.0 -68.736579895 13.959393501 -114.928695679 -124.02772522 55.137493134 -88.987731934 0.0 -0.0 11.057600021 -32.433692932 -13.338298798 8.339998245 7.125 -0.0 0.0 -4.775998592 -45.615882874 0.072800368 
12.699706078 26.577999115 41.654472351 -175.474899292 -3.88899231 -157.112991333 0.0 -0.0 0.0 -12.077297211 -2.322098255 -14.646897316 2.317599773 9.49849987 27.367399216 3.647999763 -12.257096291 -34.601402283 0.0296 -1.110399723 -3.052599907 0.0 -0.0 0.0 25.419696808 9.521999359 -13.231202126 -2.376899719 -9.610500336 27.724502563 -4.47329998 1.442299843 -39.864692688 -0.077900007 -1.800300002 4.954101086 -0.537200272 4.497499943 21.9071064 1.162700176 5.92400074 -1.76309979 -0.371499956 2.744600534 -14.544502258 2.333199739 -7.552598 8.677800179 6.665901661 -9.26940155 -15.863204956 2.44849968 -5.321800232 -6.027499199 0.0 -0.0 0.0 85.035591125 -23.03049469 -136.105224609 123.197486877 -55.395893097 -88.305381775 0.0 -0.0 29.086292267 16.28030014 1.432199597 0.418199927 -7.125 0.0 0.0 -8.21780014 31.406805038 2.756399393 0.0 -0.0 0.0 -68.546913147 14.126211166 -114.848197937 -124.229393005 55.073299408 -89.153190613 0.0 -0.0 11.072299957 -32.392391205 -13.405997276 8.367797852 7.125 -0.0 0.0 -4.733698368 -45.688705444 0.080599807 
12.698606491 26.578699112 41.66047287 -175.276000977 -3.670002937 -157.022994995 0.0 -0.0 0.0 -11.946101189 -2.423600674 -14.868504524 2.320400238 9.503898621 27.384599686 3.670199633 -12.006401062 -34.708099365 0.051399998 -1.462499738 -4.02229929 0.0 -0.0 0.0 25.507200241 9.749299049 -13.443799019 -2.362799406 -9.584200859 27.640298843 -4.438799381 1.496700525 -39.692199707 -0.094399989 -1.981899738 5.455699444 -0.503199875 4.580599785 21.829202652 1.117400289 6.035099506 -1.722499967 -0.471700013 2.791499853 -14.442899704 2.083699226 -7.726999283 8.749798775 7.175499916 -9.460001945 -15.712599754 2.654200554 -5.434999943 -5.947999477 0.0 -0.0 0.0 85.154304504 -23.144599915 -136.003509521 123.253318787 -55.378795624 -88.351409912 0.0 -0.0 29.09620285 16.306600571 1.364599824 0.399199873 -7.125 0.0 0.0 -8.190502167 31.337604523 2.760799408 0.0 -0.0 0.0 -68.40070343 14.288899422 -114.816986084 -124.412200928 55.014808655 -89.303001404 0.0 -0.0 11.109197617 -32.446498871 -13.500504494 8.442200661 7.125 -0.0 0.0 -4.781198025 -45.806194305 0.095399104 
12.699906349 26.582500458 41.670372009 -175.298400879 -4.223005295 -157.062988281 0.0 -0.0 0.0 -11.803001404 -2.839999914 -14.995301247 2.319700956 9.502404213 27.379808426 3.666999578 -12.058098793 -34.692588806 0.042599991 -1.331699729 -3.661899567 0.0 -0.0 0.0 25.592697144 9.3460989 -13.705299377 -2.357200146 -9.573497772 27.606298447 -4.470900059 1.762599349 -39.776000977 -0.211400002 -2.960300446 8.168299675 0.138699934 4.308599949 21.930301666 1.036299944 5.827199459 -1.696200252 -0.85799998 2.641400337 -14.389299393 2.130999565 -8.008699417 9.105300903 7.399499893 -9.77519989 -15.889800072 2.763900518 -5.613799572 -6.047299862 0.0 -0.0 0.0 85.282600403 -23.39509201 -135.934692383 123.324501038 -55.356903076 -88.410003662 0.0 -0.0 29.063499451 16.531200409 1.34589994 0.399399996 -7.125 0.0 0.0 -8.01060009 31.322694778 2.70200038 0.0 -0.0 0.0 -68.336708069 14.458209038 -114.810409546 -124.457824707 55.000091553 -89.340339661 0.0 -0.0 11.188801765 -32.432292938 -13.458498955 8.412299156 7.125 -0.0 0.0 -4.769498348 -45.755393982 0.089099392 
